<svg width="34" height="34" viewBox="0 0 34 34" fill="none" xmlns="http://www.w3.org/2000/svg">
<path d="M13.8419 19.4772C12.5778 17.9706 11.6356 16.232 11.0154 14.2612C10.3952 12.2905 10.2148 10.2281 10.4743 8.07406C10.4989 7.79229 10.6134 7.56571 10.8177 7.3943C11.0219 7.22289 11.265 7.14951 11.5467 7.17416L14.7487 7.48979C15.007 7.51238 15.2202 7.61089 15.3883 7.78531C15.5564 7.95972 15.6473 8.17174 15.661 8.42137L15.8398 12.057C15.8489 12.2234 15.8238 12.375 15.7645 12.5118C15.7052 12.6486 15.6117 12.7705 15.484 12.8777L13.3008 14.7096C13.5547 15.3233 13.8512 15.923 14.1904 16.5087C14.5295 17.0944 14.9241 17.6554 15.374 18.1916C15.824 18.7278 16.3079 19.2138 16.8258 19.6495C17.3437 20.0852 17.8828 20.4814 18.4431 20.838L20.6263 19.006C20.754 18.8989 20.8903 18.828 21.0353 18.7934C21.1803 18.7587 21.334 18.7604 21.4963 18.7982L25.0457 19.6056C25.2891 19.6624 25.4821 19.7887 25.6247 19.9846C25.7673 20.1804 25.8273 20.4075 25.8047 20.6658L25.5595 23.8739C25.5348 24.1557 25.4204 24.3823 25.2161 24.5537C25.0118 24.7251 24.7688 24.7985 24.487 24.7738C22.3314 24.668 20.3343 24.1355 18.4959 23.1761C16.6574 22.2167 15.1061 20.9837 13.8419 19.4772Z" fill="#56EB49"/>
</svg>
