<svg width="34" height="34" viewBox="0 0 34 34" fill="none" xmlns="http://www.w3.org/2000/svg">
<g clip-path="url(#clip0_202_133)">
<path d="M19.7988 21.2133L16.9704 24.0417C15.9922 25.0199 14.8137 25.509 13.4348 25.509C12.056 25.509 10.8775 25.0199 9.8993 24.0417C8.92114 23.0636 8.43206 21.8851 8.43206 20.5062C8.43206 19.1273 8.92114 17.9488 9.8993 16.9707L12.7277 14.1422L14.1419 15.5565L11.3135 18.3849C10.7243 18.9741 10.4296 19.6812 10.4296 20.5062C10.4296 21.3312 10.7243 22.0383 11.3135 22.6275C11.9028 23.2168 12.6099 23.5114 13.4348 23.5114C14.2598 23.5114 14.9669 23.2168 15.5562 22.6275L18.3846 19.7991L19.7988 21.2133ZM14.8491 20.5062L13.4348 19.092L19.0917 13.4351L20.5059 14.8494L14.8491 20.5062ZM21.213 19.7991L19.7988 18.3849L22.6272 15.5565C23.2165 14.9672 23.5111 14.2601 23.5111 13.4351C23.5111 12.6102 23.2165 11.9031 22.6272 11.3138C22.038 10.7246 21.3309 10.4299 20.5059 10.4299C19.6809 10.4299 18.9738 10.7246 18.3846 11.3138L15.5562 14.1422L14.1419 12.728L16.9704 9.89961C17.9485 8.92144 19.127 8.43236 20.5059 8.43236C21.8848 8.43236 23.0633 8.92144 24.0414 9.89961C25.0196 10.8778 25.5087 12.0563 25.5087 13.4351C25.5087 14.814 25.0196 15.9925 24.0414 16.9707L21.213 19.7991Z" fill="#49A2EB"/>
</g>
<defs>
<clipPath id="clip0_202_133">
<rect width="24" height="24" fill="white" transform="translate(0 16.9706) rotate(-45)"/>
</clipPath>
</defs>
</svg>
